<svg xmlns="http://www.w3.org/2000/svg" width="42" height="42" fill="none" viewBox="0 0 42 42">
  <path fill="#373C59" d="M20.99 41.944c11.583 0 20.973-9.39 20.973-20.972C41.963 9.389 32.573 0 20.99 0 9.408 0 .019 9.39.019 20.972c0 11.583 9.39 20.972 20.972 20.972Z"/>
  <path fill="#fff" d="M27.5 13.041a1.446 1.446 0 1 0-.001 2.892 1.446 1.446 0 0 0 0-2.892Zm-6.415 1.849a6.058 6.058 0 1 0 0 12.116 6.058 6.058 0 0 0 0-12.116Zm0 9.934a3.876 3.876 0 1 1 3.889-3.876 3.888 3.888 0 0 1-3.889 3.876Z"/>
  <path fill="#fff" d="M25.899 33.241h-9.817a7.386 7.386 0 0 1-7.385-7.386V16.04a7.386 7.386 0 0 1 7.385-7.386H25.9a7.386 7.386 0 0 1 7.385 7.386v9.816a7.387 7.387 0 0 1-7.385 7.386Zm-9.817-22.276a5.074 5.074 0 0 0-5.074 5.074v9.816a5.074 5.074 0 0 0 5.074 5.098H25.9a5.074 5.074 0 0 0 5.074-5.074v-9.84a5.074 5.074 0 0 0-5.074-5.074h-9.817Z"/>
</svg>
