<svg xmlns="http://www.w3.org/2000/svg" width="629" height="651" fill="none" viewBox="0 0 629 651">
  <circle cx="328" cy="361" r="288.5" stroke="#DDDDED" stroke-dasharray="8 8" stroke-width="3"/>
  <circle cx="328" cy="361" r="218.5" stroke="#DDDDED" stroke-dasharray="8 8" stroke-width="3"/>
  <circle cx="519" cy="110" r="110" fill="#3ADAD9"/>
  <circle cx="545" cy="307" r="15" fill="#25D68B"/>
  <circle cx="459" cy="133" r="15" fill="#fff" fill-opacity=".29"/>
  <circle cx="569" cy="77" r="10" fill="#fff" fill-opacity=".29"/>
  <circle cx="479" cy="536" r="100" fill="#FD9B79"/>
  <circle cx="418" cy="510" r="9" fill="#F49159"/>
  <circle cx="218" cy="44" r="12" fill="#EC844A"/>
  <circle cx="522" cy="572" r="26" fill="#F49159"/>
  <circle cx="90" cy="243" r="90" fill="#F3C758"/>
  <circle cx="126" cy="547" r="25" fill="#4A81EC"/>
  <circle cx="114" cy="210" r="21" fill="#fff" fill-opacity=".25"/>
  <circle cx="33.5" cy="260.5" r="7.5" fill="#fff" fill-opacity=".25"/>
  <g clip-path="url(#a)">
    <path fill="#fff" d="M519 55.578c-2.191 0-4.299.659-6.098 1.906a1.183 1.183 0 0 0-.3 1.637c.366.535 1.094.67 1.625.302a8.337 8.337 0 0 1 4.773-1.49c4.649 0 8.431 3.81 8.431 8.494 0 4.684-3.782 8.494-8.431 8.494-4.649 0-8.431-3.81-8.431-8.494 0-1.382.318-2.7.946-3.915a1.18 1.18 0 0 0-.497-1.588 1.164 1.164 0 0 0-1.576.501 10.954 10.954 0 0 0-1.21 5.002c0 5.982 4.831 10.849 10.768 10.849 5.938 0 10.768-4.867 10.768-10.85 0-5.982-4.83-10.848-10.768-10.848Z"/>
    <path fill="#fff" d="m558.911 119.37-11.532-27.916a1.168 1.168 0 0 0-1.079-.725h-11.491c2.235-3.046 4.095-6.08 5.548-9.06 2.575-5.28 3.881-10.409 3.881-15.242C544.237 52.407 532.916 41 519 41c-13.915 0-25.237 11.406-25.237 25.427 0 4.833 1.306 9.961 3.881 15.241 1.453 2.98 3.313 6.015 5.548 9.061h-11.491c-.472 0-.898.286-1.079.725l-7.858 19.023a1.18 1.18 0 0 0 1.078 1.63c.458 0 .892-.273 1.079-.726l1.121-2.714h7.955l-4.122 9.978h-7.954l1.195-2.892a1.18 1.18 0 0 0-.63-1.539 1.165 1.165 0 0 0-1.528.634l-1.868 4.522c-.15.364-.11.779.107 1.106.217.327.581.524.972.524h77.663c.39 0 .755-.197.972-.524.217-.327.257-.742.107-1.106ZM496.1 66.427c0-12.723 10.273-23.073 22.9-23.073 12.628 0 22.901 10.35 22.901 23.073 0 5.335-1.84 13.86-10.351 24.723l-.025.032a76.357 76.357 0 0 1-1.356 1.68c-4.677 5.635-9.41 9.75-11.169 11.212-1.754-1.457-6.464-5.551-11.138-11.175a78.068 78.068 0 0 1-1.389-1.72l-.021-.028C497.941 80.288 496.1 71.764 496.1 66.427Zm-3.62 26.657h7.954l-2.901 7.023h-7.954l2.901-7.023Zm6.832 25.562 7.304-17.68 20.783 17.68h-28.087Zm31.71 0L506.904 98.13a1.162 1.162 0 0 0-1.832.447l-8.29 20.068h-4.376l4.421-10.703c.15-.363.11-.778-.107-1.105a1.164 1.164 0 0 0-.972-.525h-8.733l1.591-3.851h9.706c.472 0 .898-.286 1.079-.725l3.574-8.653h2.028c.352.443.71.885 1.077 1.327 6.029 7.255 11.966 11.913 12.215 12.107a1.157 1.157 0 0 0 1.43 0c.138-.107 1.994-1.564 4.637-4.056h13.231c.646 0 1.169-.527 1.169-1.177s-.523-1.177-1.169-1.177H526.76a90.383 90.383 0 0 0 5.171-5.697c.367-.442.725-.884 1.077-1.326h12.513l2.901 7.023h-6.165c-.645 0-1.169.527-1.169 1.177s.523 1.177 1.169 1.177h7.137l1.591 3.852h-24.073a1.17 1.17 0 0 0-1.095.765c-.17.46-.039.979.329 1.301l11.74 10.267h-6.864Zm10.429 0-11.41-9.979h21.917l4.122 9.979h-14.629Z"/>
  </g>
  <path fill="#fff" d="M492.212 167v-19.74h2.996l7 12.908 6.972-12.908h2.94V167h-3.248v-13.3l-5.656 10.304h-2.1l-5.656-10.248V167h-3.248Zm28.985.28c-.99 0-1.876-.187-2.66-.56-.766-.392-1.372-.915-1.82-1.568-.43-.653-.644-1.391-.644-2.212 0-1.008.261-1.801.784-2.38.522-.597 1.372-1.027 2.548-1.288 1.176-.261 2.753-.392 4.732-.392h.98v-.588c0-.933-.206-1.605-.616-2.016-.411-.411-1.102-.616-2.072-.616-.766 0-1.55.121-2.352.364-.803.224-1.615.579-2.436 1.064l-1.008-2.38a7.689 7.689 0 0 1 1.708-.868 11.326 11.326 0 0 1 2.1-.588 10.753 10.753 0 0 1 2.1-.224c1.997 0 3.481.467 4.452 1.4.97.915 1.456 2.343 1.456 4.284V167h-3.276v-2.184a3.91 3.91 0 0 1-1.512 1.82c-.691.429-1.512.644-2.464.644Zm.728-2.408c.914 0 1.67-.317 2.268-.952.616-.635.924-1.437.924-2.408v-.616h-.952c-1.755 0-2.978.14-3.668.42-.672.261-1.008.747-1.008 1.456 0 .616.214 1.12.644 1.512.429.392 1.026.588 1.792.588Zm10.636 7.168v-18.732h3.416v2.184c.392-.747.98-1.344 1.764-1.792.803-.448 1.708-.672 2.716-.672 1.195 0 2.24.289 3.136.868.915.579 1.624 1.4 2.128 2.464.504 1.045.756 2.305.756 3.78 0 1.456-.252 2.725-.756 3.808-.504 1.064-1.204 1.885-2.1 2.464-.896.579-1.951.868-3.164.868-.971 0-1.848-.205-2.632-.616-.765-.429-1.353-.999-1.764-1.708v7.084h-3.5Zm6.916-7.42c1.045 0 1.885-.373 2.52-1.12.635-.765.952-1.885.952-3.36 0-1.493-.317-2.604-.952-3.332-.635-.747-1.475-1.12-2.52-1.12s-1.885.373-2.52 1.12c-.635.728-.952 1.839-.952 3.332 0 1.475.317 2.595.952 3.36.635.747 1.475 1.12 2.52 1.12ZM50.91 283.22c-1.613 0-3-.323-4.158-.968a6.683 6.683 0 0 1-2.64-2.772c-.616-1.203-.924-2.618-.924-4.246 0-1.628.308-3.036.924-4.224a6.541 6.541 0 0 1 2.64-2.75c1.159-.66 2.545-.99 4.158-.99a8.87 8.87 0 0 1 2.948.484c.939.323 1.709.785 2.31 1.386l-.924 2.244c-.66-.557-1.335-.961-2.024-1.21a6.16 6.16 0 0 0-2.222-.396c-1.57 0-2.765.477-3.586 1.43-.821.939-1.232 2.281-1.232 4.026 0 1.745.41 3.095 1.232 4.048.821.953 2.017 1.43 3.586 1.43a6.49 6.49 0 0 0 2.222-.374c.69-.264 1.364-.675 2.024-1.232l.924 2.244c-.601.587-1.371 1.049-2.31 1.386a8.87 8.87 0 0 1-2.948.484Zm11.047 0c-.777 0-1.474-.147-2.09-.44a3.792 3.792 0 0 1-1.43-1.232 3.095 3.095 0 0 1-.506-1.738c0-.792.205-1.415.616-1.87.41-.469 1.078-.807 2.002-1.012.924-.205 2.163-.308 3.718-.308h.77v-.462c0-.733-.161-1.261-.484-1.584-.323-.323-.865-.484-1.628-.484a6.36 6.36 0 0 0-1.848.286 8.017 8.017 0 0 0-1.914.836l-.792-1.87a6.064 6.064 0 0 1 1.342-.682 8.91 8.91 0 0 1 1.65-.462 8.463 8.463 0 0 1 1.65-.176c1.57 0 2.735.367 3.498 1.1.763.719 1.144 1.841 1.144 3.366V283H65.08v-1.716a3.066 3.066 0 0 1-1.188 1.43c-.543.337-1.188.506-1.936.506Zm.572-1.892c.719 0 1.313-.249 1.782-.748.484-.499.726-1.129.726-1.892v-.484h-.748c-1.379 0-2.34.11-2.882.33-.528.205-.792.587-.792 1.144 0 .484.169.88.506 1.188.337.308.807.462 1.408.462Zm12.097 1.892c-1.276 0-2.222-.345-2.838-1.034-.601-.704-.902-1.731-.902-3.08V267.49h2.75v11.484c0 1.32.558 1.98 1.672 1.98.161 0 .323-.007.484-.022.162-.015.316-.044.462-.088l-.044 2.178a6.51 6.51 0 0 1-1.584.198Zm8.92 0c-1.217 0-2.266-.227-3.146-.682a4.92 4.92 0 0 1-2.046-1.936c-.47-.836-.704-1.826-.704-2.97 0-1.115.227-2.09.682-2.926a5.115 5.115 0 0 1 1.914-1.958c.822-.484 1.753-.726 2.794-.726 1.525 0 2.728.484 3.608 1.452.895.968 1.342 2.288 1.342 3.96v.814h-7.7c.206 1.921 1.305 2.882 3.3 2.882a6.39 6.39 0 0 0 1.804-.264 5.127 5.127 0 0 0 1.65-.88l.77 1.848c-.513.425-1.158.763-1.936 1.012a7.607 7.607 0 0 1-2.332.374Zm-.396-9.328c-.806 0-1.46.249-1.958.748s-.8 1.173-.902 2.024h5.412c-.058-.895-.308-1.577-.748-2.046-.425-.484-1.026-.726-1.804-.726ZM90.608 283v-10.758h2.684v1.672a3.677 3.677 0 0 1 1.474-1.408c.63-.323 1.335-.484 2.112-.484 2.537 0 3.806 1.474 3.806 4.422V283h-2.75v-6.424c0-.836-.161-1.445-.484-1.826-.308-.381-.792-.572-1.452-.572-.807 0-1.452.257-1.936.77-.47.499-.704 1.166-.704 2.002V283h-2.75Zm17.445.22c-.939 0-1.767-.227-2.486-.682-.704-.455-1.254-1.1-1.65-1.936-.396-.851-.594-1.848-.594-2.992 0-1.159.198-2.149.594-2.97.396-.836.946-1.481 1.65-1.936.719-.455 1.547-.682 2.486-.682.763 0 1.452.169 2.068.506.616.337 1.078.785 1.386 1.342v-6.38h2.75V283h-2.684v-1.782c-.293.616-.755 1.107-1.386 1.474-.631.352-1.342.528-2.134.528Zm.77-2.09c.821 0 1.481-.293 1.98-.88.499-.601.748-1.481.748-2.64 0-1.173-.249-2.046-.748-2.618-.499-.587-1.159-.88-1.98-.88s-1.481.293-1.98.88c-.499.572-.748 1.445-.748 2.618 0 1.159.249 2.039.748 2.64.499.587 1.159.88 1.98.88Zm12.268 2.09c-.778 0-1.474-.147-2.09-.44a3.787 3.787 0 0 1-1.43-1.232 3.09 3.09 0 0 1-.506-1.738c0-.792.205-1.415.616-1.87.41-.469 1.078-.807 2.002-1.012.924-.205 2.163-.308 3.718-.308h.77v-.462c0-.733-.162-1.261-.484-1.584-.323-.323-.866-.484-1.628-.484a6.35 6.35 0 0 0-1.848.286 8.003 8.003 0 0 0-1.914.836l-.792-1.87a6.04 6.04 0 0 1 1.342-.682 8.91 8.91 0 0 1 1.65-.462 8.452 8.452 0 0 1 1.65-.176c1.569 0 2.735.367 3.498 1.1.762.719 1.144 1.841 1.144 3.366V283h-2.574v-1.716a3.074 3.074 0 0 1-1.188 1.43c-.543.337-1.188.506-1.936.506Zm.572-1.892c.718 0 1.312-.249 1.782-.748.484-.499.726-1.129.726-1.892v-.484h-.748c-1.379 0-2.34.11-2.882.33-.528.205-.792.587-.792 1.144 0 .484.168.88.506 1.188.337.308.806.462 1.408.462ZM130.02 283v-10.758h2.684v1.892c.528-1.276 1.657-1.98 3.388-2.112l.836-.066.176 2.332-1.584.154c-1.804.176-2.706 1.1-2.706 2.772V283h-2.794Zm304.908 303v-14.352h-5.808v-2.568h14.688v2.568H438V586h-3.072Zm10.826-14.256v-2.928h3.36v2.928h-3.36Zm.192 14.256v-11.736h3V586h-3Zm6.645 0v-11.736h2.928v1.8c.352-.64.84-1.136 1.464-1.488.624-.368 1.344-.552 2.16-.552 1.76 0 2.912.768 3.456 2.304.368-.72.896-1.28 1.584-1.68.688-.416 1.472-.624 2.352-.624 2.64 0 3.96 1.608 3.96 4.824V586h-3v-7.032c0-.896-.152-1.552-.456-1.968-.288-.416-.784-.624-1.488-.624-.784 0-1.4.28-1.848.84-.448.544-.672 1.304-.672 2.28V586h-3v-7.032c0-.896-.152-1.552-.456-1.968-.288-.416-.776-.624-1.464-.624-.784 0-1.4.28-1.848.84-.448.544-.672 1.304-.672 2.28V586h-3Zm27.263.24c-1.328 0-2.472-.248-3.432-.744a5.366 5.366 0 0 1-2.232-2.112c-.512-.912-.768-1.992-.768-3.24 0-1.216.248-2.28.744-3.192a5.581 5.581 0 0 1 2.088-2.136c.896-.528 1.912-.792 3.048-.792 1.664 0 2.976.528 3.936 1.584.976 1.056 1.464 2.496 1.464 4.32v.888h-8.4c.224 2.096 1.424 3.144 3.6 3.144.656 0 1.312-.096 1.968-.288a5.588 5.588 0 0 0 1.8-.96l.84 2.016c-.56.464-1.264.832-2.112 1.104a8.288 8.288 0 0 1-2.544.408Zm-.432-10.176c-.88 0-1.592.272-2.136.816-.544.544-.872 1.28-.984 2.208h5.904c-.064-.976-.336-1.72-.816-2.232-.464-.528-1.12-.792-1.968-.792Zm12.216 10.176c-1.392 0-2.424-.376-3.096-1.128-.656-.768-.984-1.888-.984-3.36V569.08h3v12.528c0 1.44.608 2.16 1.824 2.16.176 0 .352-.008.528-.024.176-.016.344-.048.504-.096l-.048 2.376a7.101 7.101 0 0 1-1.728.216Zm3.872-14.496v-2.928h3.36v2.928h-3.36Zm.192 14.256v-11.736h3V586h-3Zm6.597 0v-11.736h2.928v1.824a4.01 4.01 0 0 1 1.608-1.536c.688-.352 1.456-.528 2.304-.528 2.768 0 4.152 1.608 4.152 4.824V586h-3v-7.008c0-.912-.176-1.576-.528-1.992-.336-.416-.864-.624-1.584-.624-.88 0-1.584.28-2.112.84-.512.544-.768 1.272-.768 2.184v6.6h-3Zm20.303.24c-1.328 0-2.472-.248-3.432-.744a5.366 5.366 0 0 1-2.232-2.112c-.512-.912-.768-1.992-.768-3.24 0-1.216.248-2.28.744-3.192a5.581 5.581 0 0 1 2.088-2.136c.896-.528 1.912-.792 3.048-.792 1.664 0 2.976.528 3.936 1.584.976 1.056 1.464 2.496 1.464 4.32v.888h-8.4c.224 2.096 1.424 3.144 3.6 3.144.656 0 1.312-.096 1.968-.288a5.588 5.588 0 0 0 1.8-.96l.84 2.016c-.56.464-1.264.832-2.112 1.104a8.288 8.288 0 0 1-2.544.408Zm-.432-10.176c-.88 0-1.592.272-2.136.816-.544.544-.872 1.28-.984 2.208h5.904c-.064-.976-.336-1.72-.816-2.232-.464-.528-1.12-.792-1.968-.792Z"/>
  <g clip-path="url(#b)">
    <path fill="#fff" d="M77.5 194c-.986 0-1.786.799-1.786 1.786v3.571h3.572v-3.571c0-.987-.8-1.786-1.786-1.786Zm25 0c-.986 0-1.786.799-1.786 1.786v3.571h3.572v-3.571c0-.987-.8-1.786-1.786-1.786Z"/>
    <path fill="#fff" d="M109.643 199.357h-5.357v7.143a1.786 1.786 0 0 1-3.572 0v-7.143H79.286v7.143a1.786 1.786 0 0 1-3.572 0v-7.143h-5.357A5.357 5.357 0 0 0 65 204.714v33.929A5.357 5.357 0 0 0 70.357 244h39.286a5.357 5.357 0 0 0 5.357-5.357v-33.929a5.356 5.356 0 0 0-5.357-5.357Zm1.786 39.286c0 .986-.8 1.785-1.786 1.785H70.357a1.785 1.785 0 0 1-1.786-1.785v-23.215h42.858v23.215Z"/>
    <path fill="#fff" d="M79.286 219h-3.572a1.785 1.785 0 1 0 0 3.571h3.572a1.785 1.785 0 1 0 0-3.571Zm12.5 0h-3.572a1.785 1.785 0 1 0 0 3.571h3.572a1.785 1.785 0 1 0 0-3.571Zm12.5 0h-3.572a1.785 1.785 0 0 0 0 3.571h3.572a1.786 1.786 0 1 0 0-3.571Zm-25 7.143h-3.572a1.785 1.785 0 1 0 0 3.571h3.572a1.785 1.785 0 1 0 0-3.571Zm12.5 0h-3.572a1.785 1.785 0 1 0 0 3.571h3.572a1.785 1.785 0 1 0 0-3.571Zm12.5 0h-3.572a1.785 1.785 0 1 0 0 3.571h3.572a1.786 1.786 0 1 0 0-3.571Zm-25 7.143h-3.572a1.785 1.785 0 1 0 0 3.571h3.572a1.785 1.785 0 1 0 0-3.571Zm12.5 0h-3.572a1.785 1.785 0 1 0 0 3.571h3.572a1.785 1.785 0 1 0 0-3.571Zm12.5 0h-3.572a1.785 1.785 0 1 0 0 3.571h3.572a1.786 1.786 0 1 0 0-3.571Z"/>
  </g>
  <g clip-path="url(#c)">
    <path fill="#fff" d="M479 475c-19.3 0-35 15.7-35 35s15.7 35 35 35 35-15.7 35-35-15.7-35-35-35Zm16.646 53.103a2.91 2.91 0 0 1-4.124 0l-14.584-14.582a2.907 2.907 0 0 1-.854-2.062V492.5a2.915 2.915 0 0 1 2.916-2.916 2.915 2.915 0 0 1 2.916 2.916v17.751l13.73 13.728a2.914 2.914 0 0 1 0 4.124Z"/>
  </g>
  <defs>
    <clipPath id="a">
      <path fill="#fff" d="M479 41h80v80h-80z"/>
    </clipPath>
    <clipPath id="b">
      <path fill="#fff" d="M65 194h50v50H65z"/>
    </clipPath>
    <clipPath id="c">
      <path fill="#fff" d="M444 475h70v70h-70z"/>
    </clipPath>
  </defs>
</svg>
