<svg xmlns="http://www.w3.org/2000/svg" width="24" height="24" fill="none" viewBox="0 0 24 24">
  <g clip-path="url(#a)">
    <path fill="#9092B0" d="m15.909 12.123 8.09 5.115V6.792l-8.09 5.331ZM0 6.792v10.446l8.091-5.115L0 6.792ZM22.5 3.75h-21c-.75 0-1.343.558-1.455 1.277L12 12.902l11.955-7.877c-.113-.718-.707-1.276-1.455-1.276Zm-7.965 9.279-2.122 1.398a.75.75 0 0 1-.825 0l-2.123-1.4-9.417 5.957c.116.712.707 1.266 1.452 1.266h21c.746 0 1.337-.554 1.452-1.266l-9.417-5.955Z"/>
  </g>
  <defs>
    <clipPath id="a">
      <path fill="#fff" d="M0 0h24v24H0z"/>
    </clipPath>
  </defs>
</svg>
